<?xml version="1.0" standalone="no"?>
<svg xmlns:xlink="http://www.w3.org/1999/xlink" id="wave" style="transform:rotate(0deg); transition: 0.3s" viewBox="0 0 1440 490" version="1.1" xmlns="http://www.w3.org/2000/svg"><defs><linearGradient id="sw-gradient-0" x1="0" x2="0" y1="1" y2="0"><stop stop-color="rgba(1, 41, 112, 1)" offset="0%"/><stop stop-color="rgba(65, 84, 241, 1)" offset="100%"/></linearGradient></defs><path style="transform:translate(0, 0px); opacity:1" fill="url(#sw-gradient-0)" d="M0,343L60,359.3C120,376,240,408,360,383.8C480,359,600,278,720,253.2C840,229,960,261,1080,236.8C1200,212,1320,131,1440,147C1560,163,1680,278,1800,294C1920,310,2040,229,2160,163.3C2280,98,2400,49,2520,57.2C2640,65,2760,131,2880,138.8C3000,147,3120,98,3240,138.8C3360,180,3480,310,3600,326.7C3720,343,3840,245,3960,220.5C4080,196,4200,245,4320,261.3C4440,278,4560,261,4680,236.8C4800,212,4920,180,5040,204.2C5160,229,5280,310,5400,302.2C5520,294,5640,196,5760,187.8C5880,180,6000,261,6120,277.7C6240,294,6360,245,6480,228.7C6600,212,6720,229,6840,236.8C6960,245,7080,245,7200,277.7C7320,310,7440,376,7560,400.2C7680,425,7800,408,7920,343C8040,278,8160,163,8280,138.8C8400,114,8520,180,8580,212.3L8640,245L8640,490L8580,490C8520,490,8400,490,8280,490C8160,490,8040,490,7920,490C7800,490,7680,490,7560,490C7440,490,7320,490,7200,490C7080,490,6960,490,6840,490C6720,490,6600,490,6480,490C6360,490,6240,490,6120,490C6000,490,5880,490,5760,490C5640,490,5520,490,5400,490C5280,490,5160,490,5040,490C4920,490,4800,490,4680,490C4560,490,4440,490,4320,490C4200,490,4080,490,3960,490C3840,490,3720,490,3600,490C3480,490,3360,490,3240,490C3120,490,3000,490,2880,490C2760,490,2640,490,2520,490C2400,490,2280,490,2160,490C2040,490,1920,490,1800,490C1680,490,1560,490,1440,490C1320,490,1200,490,1080,490C960,490,840,490,720,490C600,490,480,490,360,490C240,490,120,490,60,490L0,490Z"/></svg>